<svg width="19" height="19" viewBox="0 0 19 19" fill="none" xmlns="http://www.w3.org/2000/svg">
<mask id="path-1-outside-1_10108_81863" maskUnits="userSpaceOnUse" x="-0.000976562" y="0" width="19" height="19" fill="black">
<rect fill="white" x="-0.000976562" width="19" height="19"/>
<path fill-rule="evenodd" clip-rule="evenodd" d="M6.75557 9.50031L1.99966 14.1721L4.60834 16.7347L9.36426 12.0629L14.3903 17L16.999 14.4375L11.9729 9.50031L16.9996 4.56255L14.3909 2L9.36426 6.93776L4.60771 2.26533L1.99902 4.82788L6.75557 9.50031Z"/>
</mask>
<path fill-rule="evenodd" clip-rule="evenodd" d="M6.75557 9.50031L1.99966 14.1721L4.60834 16.7347L9.36426 12.0629L14.3903 17L16.999 14.4375L11.9729 9.50031L16.9996 4.56255L14.3909 2L9.36426 6.93776L4.60771 2.26533L1.99902 4.82788L6.75557 9.50031Z" fill="white"/>
<path d="M1.99966 14.1721L1.29889 13.4587L0.572657 14.1721L1.29889 14.8855L1.99966 14.1721ZM6.75557 9.50031L7.45635 10.2137L8.18258 9.50031L7.45635 8.78693L6.75557 9.50031ZM4.60834 16.7347L3.90757 17.4481L4.60834 18.1364L5.30911 17.4481L4.60834 16.7347ZM9.36426 12.0629L10.065 11.3495L9.36426 10.6611L8.66349 11.3495L9.36426 12.0629ZM14.3903 17L13.6895 17.7134L14.3903 18.4018L15.0911 17.7134L14.3903 17ZM16.999 14.4375L17.6997 15.1508L18.426 14.4375L17.6997 13.7241L16.999 14.4375ZM11.9729 9.50031L11.2722 8.78693L10.5459 9.50031L11.2722 10.2137L11.9729 9.50031ZM16.9996 4.56255L17.7004 5.27594L18.4266 4.56255L17.7004 3.84917L16.9996 4.56255ZM14.3909 2L15.0917 1.28661L14.3909 0.598235L13.6901 1.28661L14.3909 2ZM9.36426 6.93776L8.66349 7.65115L9.36426 8.33953L10.065 7.65115L9.36426 6.93776ZM4.60771 2.26533L5.30848 1.55194L4.60771 0.863563L3.90694 1.55194L4.60771 2.26533ZM1.99902 4.82788L1.29825 4.11449L0.572023 4.82788L1.29825 5.54127L1.99902 4.82788ZM2.70043 14.8855L7.45635 10.2137L6.0548 8.78693L1.29889 13.4587L2.70043 14.8855ZM5.30911 16.0213L2.70043 13.4587L1.29889 14.8855L3.90757 17.4481L5.30911 16.0213ZM8.66349 11.3495L3.90757 16.0213L5.30911 17.4481L10.065 12.7763L8.66349 11.3495ZM15.0911 16.2866L10.065 11.3495L8.66349 12.7763L13.6895 17.7134L15.0911 16.2866ZM16.2982 13.7241L13.6895 16.2866L15.0911 17.7134L17.6997 15.1508L16.2982 13.7241ZM11.2722 10.2137L16.2982 15.1508L17.6997 13.7241L12.6737 8.78693L11.2722 10.2137ZM16.2988 3.84917L11.2722 8.78693L12.6737 10.2137L17.7004 5.27594L16.2988 3.84917ZM13.6901 2.71339L16.2988 5.27594L17.7004 3.84917L15.0917 1.28661L13.6901 2.71339ZM10.065 7.65115L15.0917 2.71339L13.6901 1.28661L8.66349 6.22437L10.065 7.65115ZM3.90694 2.97871L8.66349 7.65115L10.065 6.22437L5.30848 1.55194L3.90694 2.97871ZM2.69979 5.54127L5.30848 2.97871L3.90694 1.55194L1.29825 4.11449L2.69979 5.54127ZM7.45635 8.78693L2.69979 4.11449L1.29825 5.54127L6.0548 10.2137L7.45635 8.78693Z" fill="#505A5F" mask="url(#path-1-outside-1_10108_81863)"/>
</svg>
